<mxfile host="Electron" agent="Mozilla/5.0 (Windows NT 10.0; Win64; x64) AppleWebKit/537.36 (KHTML, like Gecko) draw.io/24.7.8 Chrome/128.0.6613.36 Electron/32.0.1 Safari/537.36" version="24.7.8">
  <diagram id="C5RBs43oDa-KdzZeNtuy" name="Page-1">
    <mxGraphModel dx="2380" dy="1285" grid="1" gridSize="10" guides="1" tooltips="1" connect="1" arrows="1" fold="1" page="1" pageScale="1" pageWidth="827" pageHeight="1169" math="0" shadow="0">
      <root>
        <mxCell id="WIyWlLk6GJQsqaUBKTNV-0" />
        <mxCell id="WIyWlLk6GJQsqaUBKTNV-1" parent="WIyWlLk6GJQsqaUBKTNV-0" />
        <mxCell id="bnbWUYlflLQyV73f7VLw-22" value="Notification" style="swimlane;fontStyle=1;align=center;verticalAlign=top;childLayout=stackLayout;horizontal=1;startSize=26;horizontalStack=0;resizeParent=1;resizeParentMax=0;resizeLast=0;collapsible=1;marginBottom=0;whiteSpace=wrap;html=1;" vertex="1" parent="WIyWlLk6GJQsqaUBKTNV-1">
          <mxGeometry x="-773" y="790" width="257" height="216" as="geometry" />
        </mxCell>
        <mxCell id="bnbWUYlflLQyV73f7VLw-23" value="- notificationID: type" style="text;strokeColor=none;fillColor=none;align=left;verticalAlign=top;spacingLeft=4;spacingRight=4;overflow=hidden;rotatable=0;points=[[0,0.5],[1,0.5]];portConstraint=eastwest;whiteSpace=wrap;html=1;" vertex="1" parent="bnbWUYlflLQyV73f7VLw-22">
          <mxGeometry y="26" width="257" height="26" as="geometry" />
        </mxCell>
        <mxCell id="bnbWUYlflLQyV73f7VLw-28" value="- recipientUserID: type" style="text;strokeColor=none;fillColor=none;align=left;verticalAlign=top;spacingLeft=4;spacingRight=4;overflow=hidden;rotatable=0;points=[[0,0.5],[1,0.5]];portConstraint=eastwest;whiteSpace=wrap;html=1;" vertex="1" parent="bnbWUYlflLQyV73f7VLw-22">
          <mxGeometry y="52" width="257" height="26" as="geometry" />
        </mxCell>
        <mxCell id="bnbWUYlflLQyV73f7VLw-26" value="- message: type" style="text;strokeColor=none;fillColor=none;align=left;verticalAlign=top;spacingLeft=4;spacingRight=4;overflow=hidden;rotatable=0;points=[[0,0.5],[1,0.5]];portConstraint=eastwest;whiteSpace=wrap;html=1;" vertex="1" parent="bnbWUYlflLQyV73f7VLw-22">
          <mxGeometry y="78" width="257" height="26" as="geometry" />
        </mxCell>
        <mxCell id="bnbWUYlflLQyV73f7VLw-27" value="- message: type" style="text;strokeColor=none;fillColor=none;align=left;verticalAlign=top;spacingLeft=4;spacingRight=4;overflow=hidden;rotatable=0;points=[[0,0.5],[1,0.5]];portConstraint=eastwest;whiteSpace=wrap;html=1;" vertex="1" parent="bnbWUYlflLQyV73f7VLw-22">
          <mxGeometry y="104" width="257" height="26" as="geometry" />
        </mxCell>
        <mxCell id="bnbWUYlflLQyV73f7VLw-31" value="- eventType: type" style="text;strokeColor=none;fillColor=none;align=left;verticalAlign=top;spacingLeft=4;spacingRight=4;overflow=hidden;rotatable=0;points=[[0,0.5],[1,0.5]];portConstraint=eastwest;whiteSpace=wrap;html=1;" vertex="1" parent="bnbWUYlflLQyV73f7VLw-22">
          <mxGeometry y="130" width="257" height="26" as="geometry" />
        </mxCell>
        <mxCell id="bnbWUYlflLQyV73f7VLw-29" value="- relatedChatID: type" style="text;strokeColor=none;fillColor=none;align=left;verticalAlign=top;spacingLeft=4;spacingRight=4;overflow=hidden;rotatable=0;points=[[0,0.5],[1,0.5]];portConstraint=eastwest;whiteSpace=wrap;html=1;" vertex="1" parent="bnbWUYlflLQyV73f7VLw-22">
          <mxGeometry y="156" width="257" height="26" as="geometry" />
        </mxCell>
        <mxCell id="bnbWUYlflLQyV73f7VLw-24" value="" style="line;strokeWidth=1;fillColor=none;align=left;verticalAlign=middle;spacingTop=-1;spacingLeft=3;spacingRight=3;rotatable=0;labelPosition=right;points=[];portConstraint=eastwest;strokeColor=inherit;" vertex="1" parent="bnbWUYlflLQyV73f7VLw-22">
          <mxGeometry y="182" width="257" height="8" as="geometry" />
        </mxCell>
        <mxCell id="bnbWUYlflLQyV73f7VLw-25" value="+ send(recipient, message, eventType): type" style="text;strokeColor=none;fillColor=none;align=left;verticalAlign=top;spacingLeft=4;spacingRight=4;overflow=hidden;rotatable=0;points=[[0,0.5],[1,0.5]];portConstraint=eastwest;whiteSpace=wrap;html=1;" vertex="1" parent="bnbWUYlflLQyV73f7VLw-22">
          <mxGeometry y="190" width="257" height="26" as="geometry" />
        </mxCell>
        <mxCell id="bnbWUYlflLQyV73f7VLw-64" value="User" style="swimlane;fontStyle=1;align=center;verticalAlign=top;childLayout=stackLayout;horizontal=1;startSize=26;horizontalStack=0;resizeParent=1;resizeParentMax=0;resizeLast=0;collapsible=1;marginBottom=0;whiteSpace=wrap;html=1;" vertex="1" parent="WIyWlLk6GJQsqaUBKTNV-1">
          <mxGeometry x="-1190" y="470" width="257" height="450" as="geometry" />
        </mxCell>
        <mxCell id="bnbWUYlflLQyV73f7VLw-65" value="- userID: type" style="text;strokeColor=none;fillColor=none;align=left;verticalAlign=top;spacingLeft=4;spacingRight=4;overflow=hidden;rotatable=0;points=[[0,0.5],[1,0.5]];portConstraint=eastwest;whiteSpace=wrap;html=1;" vertex="1" parent="bnbWUYlflLQyV73f7VLw-64">
          <mxGeometry y="26" width="257" height="26" as="geometry" />
        </mxCell>
        <mxCell id="bnbWUYlflLQyV73f7VLw-66" value="- phoneNumber: type" style="text;strokeColor=none;fillColor=none;align=left;verticalAlign=top;spacingLeft=4;spacingRight=4;overflow=hidden;rotatable=0;points=[[0,0.5],[1,0.5]];portConstraint=eastwest;whiteSpace=wrap;html=1;" vertex="1" parent="bnbWUYlflLQyV73f7VLw-64">
          <mxGeometry y="52" width="257" height="26" as="geometry" />
        </mxCell>
        <mxCell id="bnbWUYlflLQyV73f7VLw-67" value="- username: type" style="text;strokeColor=none;fillColor=none;align=left;verticalAlign=top;spacingLeft=4;spacingRight=4;overflow=hidden;rotatable=0;points=[[0,0.5],[1,0.5]];portConstraint=eastwest;whiteSpace=wrap;html=1;" vertex="1" parent="bnbWUYlflLQyV73f7VLw-64">
          <mxGeometry y="78" width="257" height="26" as="geometry" />
        </mxCell>
        <mxCell id="bnbWUYlflLQyV73f7VLw-68" value="- firstName: type" style="text;strokeColor=none;fillColor=none;align=left;verticalAlign=top;spacingLeft=4;spacingRight=4;overflow=hidden;rotatable=0;points=[[0,0.5],[1,0.5]];portConstraint=eastwest;whiteSpace=wrap;html=1;" vertex="1" parent="bnbWUYlflLQyV73f7VLw-64">
          <mxGeometry y="104" width="257" height="26" as="geometry" />
        </mxCell>
        <mxCell id="bnbWUYlflLQyV73f7VLw-69" value="- lastName: type" style="text;strokeColor=none;fillColor=none;align=left;verticalAlign=top;spacingLeft=4;spacingRight=4;overflow=hidden;rotatable=0;points=[[0,0.5],[1,0.5]];portConstraint=eastwest;whiteSpace=wrap;html=1;" vertex="1" parent="bnbWUYlflLQyV73f7VLw-64">
          <mxGeometry y="130" width="257" height="26" as="geometry" />
        </mxCell>
        <mxCell id="bnbWUYlflLQyV73f7VLw-70" value="- bio: type" style="text;strokeColor=none;fillColor=none;align=left;verticalAlign=top;spacingLeft=4;spacingRight=4;overflow=hidden;rotatable=0;points=[[0,0.5],[1,0.5]];portConstraint=eastwest;whiteSpace=wrap;html=1;" vertex="1" parent="bnbWUYlflLQyV73f7VLw-64">
          <mxGeometry y="156" width="257" height="26" as="geometry" />
        </mxCell>
        <mxCell id="bnbWUYlflLQyV73f7VLw-71" value="- profilePictureURL: type" style="text;strokeColor=none;fillColor=none;align=left;verticalAlign=top;spacingLeft=4;spacingRight=4;overflow=hidden;rotatable=0;points=[[0,0.5],[1,0.5]];portConstraint=eastwest;whiteSpace=wrap;html=1;" vertex="1" parent="bnbWUYlflLQyV73f7VLw-64">
          <mxGeometry y="182" width="257" height="26" as="geometry" />
        </mxCell>
        <mxCell id="bnbWUYlflLQyV73f7VLw-72" value="- isOnline: type" style="text;strokeColor=none;fillColor=none;align=left;verticalAlign=top;spacingLeft=4;spacingRight=4;overflow=hidden;rotatable=0;points=[[0,0.5],[1,0.5]];portConstraint=eastwest;whiteSpace=wrap;html=1;" vertex="1" parent="bnbWUYlflLQyV73f7VLw-64">
          <mxGeometry y="208" width="257" height="26" as="geometry" />
        </mxCell>
        <mxCell id="bnbWUYlflLQyV73f7VLw-73" value="- lastSeenAt: type" style="text;strokeColor=none;fillColor=none;align=left;verticalAlign=top;spacingLeft=4;spacingRight=4;overflow=hidden;rotatable=0;points=[[0,0.5],[1,0.5]];portConstraint=eastwest;whiteSpace=wrap;html=1;" vertex="1" parent="bnbWUYlflLQyV73f7VLw-64">
          <mxGeometry y="234" width="257" height="26" as="geometry" />
        </mxCell>
        <mxCell id="bnbWUYlflLQyV73f7VLw-74" value="- privacySettings: type" style="text;strokeColor=none;fillColor=none;align=left;verticalAlign=top;spacingLeft=4;spacingRight=4;overflow=hidden;rotatable=0;points=[[0,0.5],[1,0.5]];portConstraint=eastwest;whiteSpace=wrap;html=1;" vertex="1" parent="bnbWUYlflLQyV73f7VLw-64">
          <mxGeometry y="260" width="257" height="26" as="geometry" />
        </mxCell>
        <mxCell id="bnbWUYlflLQyV73f7VLw-78" value="" style="line;strokeWidth=1;fillColor=none;align=left;verticalAlign=middle;spacingTop=-1;spacingLeft=3;spacingRight=3;rotatable=0;labelPosition=right;points=[];portConstraint=eastwest;strokeColor=inherit;" vertex="1" parent="bnbWUYlflLQyV73f7VLw-64">
          <mxGeometry y="286" width="257" height="8" as="geometry" />
        </mxCell>
        <mxCell id="bnbWUYlflLQyV73f7VLw-79" value="+ register(phoneNumber): type" style="text;strokeColor=none;fillColor=none;align=left;verticalAlign=top;spacingLeft=4;spacingRight=4;overflow=hidden;rotatable=0;points=[[0,0.5],[1,0.5]];portConstraint=eastwest;whiteSpace=wrap;html=1;" vertex="1" parent="bnbWUYlflLQyV73f7VLw-64">
          <mxGeometry y="294" width="257" height="26" as="geometry" />
        </mxCell>
        <mxCell id="bnbWUYlflLQyV73f7VLw-80" value="+ authenticate(otp): type" style="text;strokeColor=none;fillColor=none;align=left;verticalAlign=top;spacingLeft=4;spacingRight=4;overflow=hidden;rotatable=0;points=[[0,0.5],[1,0.5]];portConstraint=eastwest;whiteSpace=wrap;html=1;" vertex="1" parent="bnbWUYlflLQyV73f7VLw-64">
          <mxGeometry y="320" width="257" height="26" as="geometry" />
        </mxCell>
        <mxCell id="bnbWUYlflLQyV73f7VLw-81" value="+ updateProfile(data): type" style="text;strokeColor=none;fillColor=none;align=left;verticalAlign=top;spacingLeft=4;spacingRight=4;overflow=hidden;rotatable=0;points=[[0,0.5],[1,0.5]];portConstraint=eastwest;whiteSpace=wrap;html=1;" vertex="1" parent="bnbWUYlflLQyV73f7VLw-64">
          <mxGeometry y="346" width="257" height="26" as="geometry" />
        </mxCell>
        <mxCell id="bnbWUYlflLQyV73f7VLw-82" value="+ viewOnlineStatus(contact): type" style="text;strokeColor=none;fillColor=none;align=left;verticalAlign=top;spacingLeft=4;spacingRight=4;overflow=hidden;rotatable=0;points=[[0,0.5],[1,0.5]];portConstraint=eastwest;whiteSpace=wrap;html=1;" vertex="1" parent="bnbWUYlflLQyV73f7VLw-64">
          <mxGeometry y="372" width="257" height="26" as="geometry" />
        </mxCell>
        <mxCell id="bnbWUYlflLQyV73f7VLw-83" value="+ viewLastSeen(contact): type" style="text;strokeColor=none;fillColor=none;align=left;verticalAlign=top;spacingLeft=4;spacingRight=4;overflow=hidden;rotatable=0;points=[[0,0.5],[1,0.5]];portConstraint=eastwest;whiteSpace=wrap;html=1;" vertex="1" parent="bnbWUYlflLQyV73f7VLw-64">
          <mxGeometry y="398" width="257" height="26" as="geometry" />
        </mxCell>
        <mxCell id="bnbWUYlflLQyV73f7VLw-84" value="+ configurePrivacy(setting, value): type" style="text;strokeColor=none;fillColor=none;align=left;verticalAlign=top;spacingLeft=4;spacingRight=4;overflow=hidden;rotatable=0;points=[[0,0.5],[1,0.5]];portConstraint=eastwest;whiteSpace=wrap;html=1;" vertex="1" parent="bnbWUYlflLQyV73f7VLw-64">
          <mxGeometry y="424" width="257" height="26" as="geometry" />
        </mxCell>
        <mxCell id="bnbWUYlflLQyV73f7VLw-106" value="Chat" style="swimlane;fontStyle=1;align=center;verticalAlign=top;childLayout=stackLayout;horizontal=1;startSize=26;horizontalStack=0;resizeParent=1;resizeParentMax=0;resizeLast=0;collapsible=1;marginBottom=0;whiteSpace=wrap;html=1;" vertex="1" parent="WIyWlLk6GJQsqaUBKTNV-1">
          <mxGeometry x="-1200" y="40" width="270" height="346" as="geometry" />
        </mxCell>
        <mxCell id="bnbWUYlflLQyV73f7VLw-107" value="- chatID: type" style="text;strokeColor=none;fillColor=none;align=left;verticalAlign=top;spacingLeft=4;spacingRight=4;overflow=hidden;rotatable=0;points=[[0,0.5],[1,0.5]];portConstraint=eastwest;whiteSpace=wrap;html=1;" vertex="1" parent="bnbWUYlflLQyV73f7VLw-106">
          <mxGeometry y="26" width="270" height="26" as="geometry" />
        </mxCell>
        <mxCell id="bnbWUYlflLQyV73f7VLw-108" value="- chatType: type" style="text;strokeColor=none;fillColor=none;align=left;verticalAlign=top;spacingLeft=4;spacingRight=4;overflow=hidden;rotatable=0;points=[[0,0.5],[1,0.5]];portConstraint=eastwest;whiteSpace=wrap;html=1;" vertex="1" parent="bnbWUYlflLQyV73f7VLw-106">
          <mxGeometry y="52" width="270" height="26" as="geometry" />
        </mxCell>
        <mxCell id="bnbWUYlflLQyV73f7VLw-109" value="- chatName: type" style="text;strokeColor=none;fillColor=none;align=left;verticalAlign=top;spacingLeft=4;spacingRight=4;overflow=hidden;rotatable=0;points=[[0,0.5],[1,0.5]];portConstraint=eastwest;whiteSpace=wrap;html=1;" vertex="1" parent="bnbWUYlflLQyV73f7VLw-106">
          <mxGeometry y="78" width="270" height="26" as="geometry" />
        </mxCell>
        <mxCell id="bnbWUYlflLQyV73f7VLw-110" value="- chatPictureURL: type" style="text;strokeColor=none;fillColor=none;align=left;verticalAlign=top;spacingLeft=4;spacingRight=4;overflow=hidden;rotatable=0;points=[[0,0.5],[1,0.5]];portConstraint=eastwest;whiteSpace=wrap;html=1;" vertex="1" parent="bnbWUYlflLQyV73f7VLw-106">
          <mxGeometry y="104" width="270" height="26" as="geometry" />
        </mxCell>
        <mxCell id="bnbWUYlflLQyV73f7VLw-111" value="- chatDescription: type" style="text;strokeColor=none;fillColor=none;align=left;verticalAlign=top;spacingLeft=4;spacingRight=4;overflow=hidden;rotatable=0;points=[[0,0.5],[1,0.5]];portConstraint=eastwest;whiteSpace=wrap;html=1;" vertex="1" parent="bnbWUYlflLQyV73f7VLw-106">
          <mxGeometry y="130" width="270" height="26" as="geometry" />
        </mxCell>
        <mxCell id="bnbWUYlflLQyV73f7VLw-112" value="- publicLink: type" style="text;strokeColor=none;fillColor=none;align=left;verticalAlign=top;spacingLeft=4;spacingRight=4;overflow=hidden;rotatable=0;points=[[0,0.5],[1,0.5]];portConstraint=eastwest;whiteSpace=wrap;html=1;" vertex="1" parent="bnbWUYlflLQyV73f7VLw-106">
          <mxGeometry y="156" width="270" height="26" as="geometry" />
        </mxCell>
        <mxCell id="bnbWUYlflLQyV73f7VLw-113" value="- createdAt: type" style="text;strokeColor=none;fillColor=none;align=left;verticalAlign=top;spacingLeft=4;spacingRight=4;overflow=hidden;rotatable=0;points=[[0,0.5],[1,0.5]];portConstraint=eastwest;whiteSpace=wrap;html=1;" vertex="1" parent="bnbWUYlflLQyV73f7VLw-106">
          <mxGeometry y="182" width="270" height="26" as="geometry" />
        </mxCell>
        <mxCell id="bnbWUYlflLQyV73f7VLw-118" value="" style="line;strokeWidth=1;fillColor=none;align=left;verticalAlign=middle;spacingTop=-1;spacingLeft=3;spacingRight=3;rotatable=0;labelPosition=right;points=[];portConstraint=eastwest;strokeColor=inherit;" vertex="1" parent="bnbWUYlflLQyV73f7VLw-106">
          <mxGeometry y="208" width="270" height="8" as="geometry" />
        </mxCell>
        <mxCell id="bnbWUYlflLQyV73f7VLw-119" value="+ createPrivateChat(otherUserID): type" style="text;strokeColor=none;fillColor=none;align=left;verticalAlign=top;spacingLeft=4;spacingRight=4;overflow=hidden;rotatable=0;points=[[0,0.5],[1,0.5]];portConstraint=eastwest;whiteSpace=wrap;html=1;" vertex="1" parent="bnbWUYlflLQyV73f7VLw-106">
          <mxGeometry y="216" width="270" height="26" as="geometry" />
        </mxCell>
        <mxCell id="bnbWUYlflLQyV73f7VLw-120" value="+ createGroupChat(name, initialMembers): type" style="text;strokeColor=none;fillColor=none;align=left;verticalAlign=top;spacingLeft=4;spacingRight=4;overflow=hidden;rotatable=0;points=[[0,0.5],[1,0.5]];portConstraint=eastwest;whiteSpace=wrap;html=1;" vertex="1" parent="bnbWUYlflLQyV73f7VLw-106">
          <mxGeometry y="242" width="270" height="26" as="geometry" />
        </mxCell>
        <mxCell id="bnbWUYlflLQyV73f7VLw-121" value="+ createChannel(name, description, isPublic): type" style="text;strokeColor=none;fillColor=none;align=left;verticalAlign=top;spacingLeft=4;spacingRight=4;overflow=hidden;rotatable=0;points=[[0,0.5],[1,0.5]];portConstraint=eastwest;whiteSpace=wrap;html=1;" vertex="1" parent="bnbWUYlflLQyV73f7VLw-106">
          <mxGeometry y="268" width="270" height="26" as="geometry" />
        </mxCell>
        <mxCell id="bnbWUYlflLQyV73f7VLw-122" value="+ updateChatDetails(name, picture, description): type" style="text;strokeColor=none;fillColor=none;align=left;verticalAlign=top;spacingLeft=4;spacingRight=4;overflow=hidden;rotatable=0;points=[[0,0.5],[1,0.5]];portConstraint=eastwest;whiteSpace=wrap;html=1;" vertex="1" parent="bnbWUYlflLQyV73f7VLw-106">
          <mxGeometry y="294" width="270" height="26" as="geometry" />
        </mxCell>
        <mxCell id="bnbWUYlflLQyV73f7VLw-123" value="+ deleteChat(forUserOnly): type" style="text;strokeColor=none;fillColor=none;align=left;verticalAlign=top;spacingLeft=4;spacingRight=4;overflow=hidden;rotatable=0;points=[[0,0.5],[1,0.5]];portConstraint=eastwest;whiteSpace=wrap;html=1;" vertex="1" parent="bnbWUYlflLQyV73f7VLw-106">
          <mxGeometry y="320" width="270" height="26" as="geometry" />
        </mxCell>
        <mxCell id="bnbWUYlflLQyV73f7VLw-126" value="Message" style="swimlane;fontStyle=1;align=center;verticalAlign=top;childLayout=stackLayout;horizontal=1;startSize=26;horizontalStack=0;resizeParent=1;resizeParentMax=0;resizeLast=0;collapsible=1;marginBottom=0;whiteSpace=wrap;html=1;" vertex="1" parent="WIyWlLk6GJQsqaUBKTNV-1">
          <mxGeometry x="-790" y="60" width="290" height="580" as="geometry" />
        </mxCell>
        <mxCell id="bnbWUYlflLQyV73f7VLw-127" value="- messageID: type" style="text;strokeColor=none;fillColor=none;align=left;verticalAlign=top;spacingLeft=4;spacingRight=4;overflow=hidden;rotatable=0;points=[[0,0.5],[1,0.5]];portConstraint=eastwest;whiteSpace=wrap;html=1;" vertex="1" parent="bnbWUYlflLQyV73f7VLw-126">
          <mxGeometry y="26" width="290" height="26" as="geometry" />
        </mxCell>
        <mxCell id="bnbWUYlflLQyV73f7VLw-128" value="- chatID: type" style="text;strokeColor=none;fillColor=none;align=left;verticalAlign=top;spacingLeft=4;spacingRight=4;overflow=hidden;rotatable=0;points=[[0,0.5],[1,0.5]];portConstraint=eastwest;whiteSpace=wrap;html=1;" vertex="1" parent="bnbWUYlflLQyV73f7VLw-126">
          <mxGeometry y="52" width="290" height="26" as="geometry" />
        </mxCell>
        <mxCell id="bnbWUYlflLQyV73f7VLw-129" value="- senderID: type" style="text;strokeColor=none;fillColor=none;align=left;verticalAlign=top;spacingLeft=4;spacingRight=4;overflow=hidden;rotatable=0;points=[[0,0.5],[1,0.5]];portConstraint=eastwest;whiteSpace=wrap;html=1;" vertex="1" parent="bnbWUYlflLQyV73f7VLw-126">
          <mxGeometry y="78" width="290" height="26" as="geometry" />
        </mxCell>
        <mxCell id="bnbWUYlflLQyV73f7VLw-130" value="- content: type" style="text;strokeColor=none;fillColor=none;align=left;verticalAlign=top;spacingLeft=4;spacingRight=4;overflow=hidden;rotatable=0;points=[[0,0.5],[1,0.5]];portConstraint=eastwest;whiteSpace=wrap;html=1;" vertex="1" parent="bnbWUYlflLQyV73f7VLw-126">
          <mxGeometry y="104" width="290" height="26" as="geometry" />
        </mxCell>
        <mxCell id="bnbWUYlflLQyV73f7VLw-131" value="- messageType: type" style="text;strokeColor=none;fillColor=none;align=left;verticalAlign=top;spacingLeft=4;spacingRight=4;overflow=hidden;rotatable=0;points=[[0,0.5],[1,0.5]];portConstraint=eastwest;whiteSpace=wrap;html=1;" vertex="1" parent="bnbWUYlflLQyV73f7VLw-126">
          <mxGeometry y="130" width="290" height="26" as="geometry" />
        </mxCell>
        <mxCell id="bnbWUYlflLQyV73f7VLw-132" value="- sentAt: type" style="text;strokeColor=none;fillColor=none;align=left;verticalAlign=top;spacingLeft=4;spacingRight=4;overflow=hidden;rotatable=0;points=[[0,0.5],[1,0.5]];portConstraint=eastwest;whiteSpace=wrap;html=1;" vertex="1" parent="bnbWUYlflLQyV73f7VLw-126">
          <mxGeometry y="156" width="290" height="26" as="geometry" />
        </mxCell>
        <mxCell id="bnbWUYlflLQyV73f7VLw-133" value="- mediaID: type" style="text;strokeColor=none;fillColor=none;align=left;verticalAlign=top;spacingLeft=4;spacingRight=4;overflow=hidden;rotatable=0;points=[[0,0.5],[1,0.5]];portConstraint=eastwest;whiteSpace=wrap;html=1;" vertex="1" parent="bnbWUYlflLQyV73f7VLw-126">
          <mxGeometry y="182" width="290" height="26" as="geometry" />
        </mxCell>
        <mxCell id="bnbWUYlflLQyV73f7VLw-134" value="- repliedToMessageID: type" style="text;strokeColor=none;fillColor=none;align=left;verticalAlign=top;spacingLeft=4;spacingRight=4;overflow=hidden;rotatable=0;points=[[0,0.5],[1,0.5]];portConstraint=eastwest;whiteSpace=wrap;html=1;" vertex="1" parent="bnbWUYlflLQyV73f7VLw-126">
          <mxGeometry y="208" width="290" height="26" as="geometry" />
        </mxCell>
        <mxCell id="bnbWUYlflLQyV73f7VLw-135" value="- forwardedFromUserID: type" style="text;strokeColor=none;fillColor=none;align=left;verticalAlign=top;spacingLeft=4;spacingRight=4;overflow=hidden;rotatable=0;points=[[0,0.5],[1,0.5]];portConstraint=eastwest;whiteSpace=wrap;html=1;" vertex="1" parent="bnbWUYlflLQyV73f7VLw-126">
          <mxGeometry y="234" width="290" height="26" as="geometry" />
        </mxCell>
        <mxCell id="bnbWUYlflLQyV73f7VLw-136" value="- forwardedFromChatID: type" style="text;strokeColor=none;fillColor=none;align=left;verticalAlign=top;spacingLeft=4;spacingRight=4;overflow=hidden;rotatable=0;points=[[0,0.5],[1,0.5]];portConstraint=eastwest;whiteSpace=wrap;html=1;" vertex="1" parent="bnbWUYlflLQyV73f7VLw-126">
          <mxGeometry y="260" width="290" height="26" as="geometry" />
        </mxCell>
        <mxCell id="bnbWUYlflLQyV73f7VLw-145" value="- editedAt: type" style="text;strokeColor=none;fillColor=none;align=left;verticalAlign=top;spacingLeft=4;spacingRight=4;overflow=hidden;rotatable=0;points=[[0,0.5],[1,0.5]];portConstraint=eastwest;whiteSpace=wrap;html=1;" vertex="1" parent="bnbWUYlflLQyV73f7VLw-126">
          <mxGeometry y="286" width="290" height="26" as="geometry" />
        </mxCell>
        <mxCell id="bnbWUYlflLQyV73f7VLw-146" value="- isDeleted: type" style="text;strokeColor=none;fillColor=none;align=left;verticalAlign=top;spacingLeft=4;spacingRight=4;overflow=hidden;rotatable=0;points=[[0,0.5],[1,0.5]];portConstraint=eastwest;whiteSpace=wrap;html=1;" vertex="1" parent="bnbWUYlflLQyV73f7VLw-126">
          <mxGeometry y="312" width="290" height="26" as="geometry" />
        </mxCell>
        <mxCell id="bnbWUYlflLQyV73f7VLw-147" value="- viewCount: type" style="text;strokeColor=none;fillColor=none;align=left;verticalAlign=top;spacingLeft=4;spacingRight=4;overflow=hidden;rotatable=0;points=[[0,0.5],[1,0.5]];portConstraint=eastwest;whiteSpace=wrap;html=1;" vertex="1" parent="bnbWUYlflLQyV73f7VLw-126">
          <mxGeometry y="338" width="290" height="26" as="geometry" />
        </mxCell>
        <mxCell id="bnbWUYlflLQyV73f7VLw-137" value="- status: type" style="text;strokeColor=none;fillColor=none;align=left;verticalAlign=top;spacingLeft=4;spacingRight=4;overflow=hidden;rotatable=0;points=[[0,0.5],[1,0.5]];portConstraint=eastwest;whiteSpace=wrap;html=1;" vertex="1" parent="bnbWUYlflLQyV73f7VLw-126">
          <mxGeometry y="364" width="290" height="26" as="geometry" />
        </mxCell>
        <mxCell id="bnbWUYlflLQyV73f7VLw-138" value="" style="line;strokeWidth=1;fillColor=none;align=left;verticalAlign=middle;spacingTop=-1;spacingLeft=3;spacingRight=3;rotatable=0;labelPosition=right;points=[];portConstraint=eastwest;strokeColor=inherit;" vertex="1" parent="bnbWUYlflLQyV73f7VLw-126">
          <mxGeometry y="390" width="290" height="8" as="geometry" />
        </mxCell>
        <mxCell id="bnbWUYlflLQyV73f7VLw-139" value="+ send(chat, sender, content, type, mediaID): type" style="text;strokeColor=none;fillColor=none;align=left;verticalAlign=top;spacingLeft=4;spacingRight=4;overflow=hidden;rotatable=0;points=[[0,0.5],[1,0.5]];portConstraint=eastwest;whiteSpace=wrap;html=1;" vertex="1" parent="bnbWUYlflLQyV73f7VLw-126">
          <mxGeometry y="398" width="290" height="26" as="geometry" />
        </mxCell>
        <mxCell id="bnbWUYlflLQyV73f7VLw-140" value="+ receive(): type" style="text;strokeColor=none;fillColor=none;align=left;verticalAlign=top;spacingLeft=4;spacingRight=4;overflow=hidden;rotatable=0;points=[[0,0.5],[1,0.5]];portConstraint=eastwest;whiteSpace=wrap;html=1;" vertex="1" parent="bnbWUYlflLQyV73f7VLw-126">
          <mxGeometry y="424" width="290" height="26" as="geometry" />
        </mxCell>
        <mxCell id="bnbWUYlflLQyV73f7VLw-141" value="+ edit(newContent): type" style="text;strokeColor=none;fillColor=none;align=left;verticalAlign=top;spacingLeft=4;spacingRight=4;overflow=hidden;rotatable=0;points=[[0,0.5],[1,0.5]];portConstraint=eastwest;whiteSpace=wrap;html=1;" vertex="1" parent="bnbWUYlflLQyV73f7VLw-126">
          <mxGeometry y="450" width="290" height="26" as="geometry" />
        </mxCell>
        <mxCell id="bnbWUYlflLQyV73f7VLw-142" value="+ delete(forAll): type" style="text;strokeColor=none;fillColor=none;align=left;verticalAlign=top;spacingLeft=4;spacingRight=4;overflow=hidden;rotatable=0;points=[[0,0.5],[1,0.5]];portConstraint=eastwest;whiteSpace=wrap;html=1;" vertex="1" parent="bnbWUYlflLQyV73f7VLw-126">
          <mxGeometry y="476" width="290" height="26" as="geometry" />
        </mxCell>
        <mxCell id="bnbWUYlflLQyV73f7VLw-143" value="+ reply(parentMessageID): type" style="text;strokeColor=none;fillColor=none;align=left;verticalAlign=top;spacingLeft=4;spacingRight=4;overflow=hidden;rotatable=0;points=[[0,0.5],[1,0.5]];portConstraint=eastwest;whiteSpace=wrap;html=1;" vertex="1" parent="bnbWUYlflLQyV73f7VLw-126">
          <mxGeometry y="502" width="290" height="26" as="geometry" />
        </mxCell>
        <mxCell id="bnbWUYlflLQyV73f7VLw-144" value="+ forward(targetChatID): type" style="text;strokeColor=none;fillColor=none;align=left;verticalAlign=top;spacingLeft=4;spacingRight=4;overflow=hidden;rotatable=0;points=[[0,0.5],[1,0.5]];portConstraint=eastwest;whiteSpace=wrap;html=1;" vertex="1" parent="bnbWUYlflLQyV73f7VLw-126">
          <mxGeometry y="528" width="290" height="26" as="geometry" />
        </mxCell>
        <mxCell id="bnbWUYlflLQyV73f7VLw-148" value="+ updateStatus(newStatus): type" style="text;strokeColor=none;fillColor=none;align=left;verticalAlign=top;spacingLeft=4;spacingRight=4;overflow=hidden;rotatable=0;points=[[0,0.5],[1,0.5]];portConstraint=eastwest;whiteSpace=wrap;html=1;" vertex="1" parent="bnbWUYlflLQyV73f7VLw-126">
          <mxGeometry y="554" width="290" height="26" as="geometry" />
        </mxCell>
        <mxCell id="bnbWUYlflLQyV73f7VLw-149" value="Media" style="swimlane;fontStyle=1;align=center;verticalAlign=top;childLayout=stackLayout;horizontal=1;startSize=26;horizontalStack=0;resizeParent=1;resizeParentMax=0;resizeLast=0;collapsible=1;marginBottom=0;whiteSpace=wrap;html=1;" vertex="1" parent="WIyWlLk6GJQsqaUBKTNV-1">
          <mxGeometry x="-1630" y="42" width="219" height="294" as="geometry" />
        </mxCell>
        <mxCell id="bnbWUYlflLQyV73f7VLw-150" value="- mediaID: type" style="text;strokeColor=none;fillColor=none;align=left;verticalAlign=top;spacingLeft=4;spacingRight=4;overflow=hidden;rotatable=0;points=[[0,0.5],[1,0.5]];portConstraint=eastwest;whiteSpace=wrap;html=1;" vertex="1" parent="bnbWUYlflLQyV73f7VLw-149">
          <mxGeometry y="26" width="219" height="26" as="geometry" />
        </mxCell>
        <mxCell id="bnbWUYlflLQyV73f7VLw-151" value="- messageID: type" style="text;strokeColor=none;fillColor=none;align=left;verticalAlign=top;spacingLeft=4;spacingRight=4;overflow=hidden;rotatable=0;points=[[0,0.5],[1,0.5]];portConstraint=eastwest;whiteSpace=wrap;html=1;" vertex="1" parent="bnbWUYlflLQyV73f7VLw-149">
          <mxGeometry y="52" width="219" height="26" as="geometry" />
        </mxCell>
        <mxCell id="bnbWUYlflLQyV73f7VLw-152" value="- filePathOrURL: type" style="text;strokeColor=none;fillColor=none;align=left;verticalAlign=top;spacingLeft=4;spacingRight=4;overflow=hidden;rotatable=0;points=[[0,0.5],[1,0.5]];portConstraint=eastwest;whiteSpace=wrap;html=1;" vertex="1" parent="bnbWUYlflLQyV73f7VLw-149">
          <mxGeometry y="78" width="219" height="26" as="geometry" />
        </mxCell>
        <mxCell id="bnbWUYlflLQyV73f7VLw-153" value="- thumbnailURL: type" style="text;strokeColor=none;fillColor=none;align=left;verticalAlign=top;spacingLeft=4;spacingRight=4;overflow=hidden;rotatable=0;points=[[0,0.5],[1,0.5]];portConstraint=eastwest;whiteSpace=wrap;html=1;" vertex="1" parent="bnbWUYlflLQyV73f7VLw-149">
          <mxGeometry y="104" width="219" height="26" as="geometry" />
        </mxCell>
        <mxCell id="bnbWUYlflLQyV73f7VLw-154" value="- fileSize: type" style="text;strokeColor=none;fillColor=none;align=left;verticalAlign=top;spacingLeft=4;spacingRight=4;overflow=hidden;rotatable=0;points=[[0,0.5],[1,0.5]];portConstraint=eastwest;whiteSpace=wrap;html=1;" vertex="1" parent="bnbWUYlflLQyV73f7VLw-149">
          <mxGeometry y="130" width="219" height="26" as="geometry" />
        </mxCell>
        <mxCell id="bnbWUYlflLQyV73f7VLw-155" value="- mediaType: type" style="text;strokeColor=none;fillColor=none;align=left;verticalAlign=top;spacingLeft=4;spacingRight=4;overflow=hidden;rotatable=0;points=[[0,0.5],[1,0.5]];portConstraint=eastwest;whiteSpace=wrap;html=1;" vertex="1" parent="bnbWUYlflLQyV73f7VLw-149">
          <mxGeometry y="156" width="219" height="26" as="geometry" />
        </mxCell>
        <mxCell id="bnbWUYlflLQyV73f7VLw-156" value="- uploadedAt: type" style="text;strokeColor=none;fillColor=none;align=left;verticalAlign=top;spacingLeft=4;spacingRight=4;overflow=hidden;rotatable=0;points=[[0,0.5],[1,0.5]];portConstraint=eastwest;whiteSpace=wrap;html=1;" vertex="1" parent="bnbWUYlflLQyV73f7VLw-149">
          <mxGeometry y="182" width="219" height="26" as="geometry" />
        </mxCell>
        <mxCell id="bnbWUYlflLQyV73f7VLw-161" value="" style="line;strokeWidth=1;fillColor=none;align=left;verticalAlign=middle;spacingTop=-1;spacingLeft=3;spacingRight=3;rotatable=0;labelPosition=right;points=[];portConstraint=eastwest;strokeColor=inherit;" vertex="1" parent="bnbWUYlflLQyV73f7VLw-149">
          <mxGeometry y="208" width="219" height="8" as="geometry" />
        </mxCell>
        <mxCell id="bnbWUYlflLQyV73f7VLw-162" value="+ upload(file): type" style="text;strokeColor=none;fillColor=none;align=left;verticalAlign=top;spacingLeft=4;spacingRight=4;overflow=hidden;rotatable=0;points=[[0,0.5],[1,0.5]];portConstraint=eastwest;whiteSpace=wrap;html=1;" vertex="1" parent="bnbWUYlflLQyV73f7VLw-149">
          <mxGeometry y="216" width="219" height="26" as="geometry" />
        </mxCell>
        <mxCell id="bnbWUYlflLQyV73f7VLw-163" value="+ retrieve(): type" style="text;strokeColor=none;fillColor=none;align=left;verticalAlign=top;spacingLeft=4;spacingRight=4;overflow=hidden;rotatable=0;points=[[0,0.5],[1,0.5]];portConstraint=eastwest;whiteSpace=wrap;html=1;" vertex="1" parent="bnbWUYlflLQyV73f7VLw-149">
          <mxGeometry y="242" width="219" height="26" as="geometry" />
        </mxCell>
        <mxCell id="bnbWUYlflLQyV73f7VLw-164" value="+ generateThumbnail(): type" style="text;strokeColor=none;fillColor=none;align=left;verticalAlign=top;spacingLeft=4;spacingRight=4;overflow=hidden;rotatable=0;points=[[0,0.5],[1,0.5]];portConstraint=eastwest;whiteSpace=wrap;html=1;" vertex="1" parent="bnbWUYlflLQyV73f7VLw-149">
          <mxGeometry y="268" width="219" height="26" as="geometry" />
        </mxCell>
        <mxCell id="bnbWUYlflLQyV73f7VLw-168" value="ChatParticipant" style="swimlane;fontStyle=1;align=center;verticalAlign=top;childLayout=stackLayout;horizontal=1;startSize=26;horizontalStack=0;resizeParent=1;resizeParentMax=0;resizeLast=0;collapsible=1;marginBottom=0;whiteSpace=wrap;html=1;" vertex="1" parent="WIyWlLk6GJQsqaUBKTNV-1">
          <mxGeometry x="-1630" y="790" width="230" height="346" as="geometry" />
        </mxCell>
        <mxCell id="bnbWUYlflLQyV73f7VLw-169" value="- ChatParticipant: type" style="text;strokeColor=none;fillColor=none;align=left;verticalAlign=top;spacingLeft=4;spacingRight=4;overflow=hidden;rotatable=0;points=[[0,0.5],[1,0.5]];portConstraint=eastwest;whiteSpace=wrap;html=1;" vertex="1" parent="bnbWUYlflLQyV73f7VLw-168">
          <mxGeometry y="26" width="230" height="26" as="geometry" />
        </mxCell>
        <mxCell id="bnbWUYlflLQyV73f7VLw-170" value="- userID: type" style="text;strokeColor=none;fillColor=none;align=left;verticalAlign=top;spacingLeft=4;spacingRight=4;overflow=hidden;rotatable=0;points=[[0,0.5],[1,0.5]];portConstraint=eastwest;whiteSpace=wrap;html=1;" vertex="1" parent="bnbWUYlflLQyV73f7VLw-168">
          <mxGeometry y="52" width="230" height="26" as="geometry" />
        </mxCell>
        <mxCell id="bnbWUYlflLQyV73f7VLw-171" value="- chatID: type" style="text;strokeColor=none;fillColor=none;align=left;verticalAlign=top;spacingLeft=4;spacingRight=4;overflow=hidden;rotatable=0;points=[[0,0.5],[1,0.5]];portConstraint=eastwest;whiteSpace=wrap;html=1;" vertex="1" parent="bnbWUYlflLQyV73f7VLw-168">
          <mxGeometry y="78" width="230" height="26" as="geometry" />
        </mxCell>
        <mxCell id="bnbWUYlflLQyV73f7VLw-172" value="- role: type" style="text;strokeColor=none;fillColor=none;align=left;verticalAlign=top;spacingLeft=4;spacingRight=4;overflow=hidden;rotatable=0;points=[[0,0.5],[1,0.5]];portConstraint=eastwest;whiteSpace=wrap;html=1;" vertex="1" parent="bnbWUYlflLQyV73f7VLw-168">
          <mxGeometry y="104" width="230" height="26" as="geometry" />
        </mxCell>
        <mxCell id="bnbWUYlflLQyV73f7VLw-173" value="- unreadCount: type" style="text;strokeColor=none;fillColor=none;align=left;verticalAlign=top;spacingLeft=4;spacingRight=4;overflow=hidden;rotatable=0;points=[[0,0.5],[1,0.5]];portConstraint=eastwest;whiteSpace=wrap;html=1;" vertex="1" parent="bnbWUYlflLQyV73f7VLw-168">
          <mxGeometry y="130" width="230" height="26" as="geometry" />
        </mxCell>
        <mxCell id="bnbWUYlflLQyV73f7VLw-174" value="- lastReadMessageID: type" style="text;strokeColor=none;fillColor=none;align=left;verticalAlign=top;spacingLeft=4;spacingRight=4;overflow=hidden;rotatable=0;points=[[0,0.5],[1,0.5]];portConstraint=eastwest;whiteSpace=wrap;html=1;" vertex="1" parent="bnbWUYlflLQyV73f7VLw-168">
          <mxGeometry y="156" width="230" height="26" as="geometry" />
        </mxCell>
        <mxCell id="bnbWUYlflLQyV73f7VLw-175" value="- joinedAt: type" style="text;strokeColor=none;fillColor=none;align=left;verticalAlign=top;spacingLeft=4;spacingRight=4;overflow=hidden;rotatable=0;points=[[0,0.5],[1,0.5]];portConstraint=eastwest;whiteSpace=wrap;html=1;" vertex="1" parent="bnbWUYlflLQyV73f7VLw-168">
          <mxGeometry y="182" width="230" height="26" as="geometry" />
        </mxCell>
        <mxCell id="bnbWUYlflLQyV73f7VLw-180" value="" style="line;strokeWidth=1;fillColor=none;align=left;verticalAlign=middle;spacingTop=-1;spacingLeft=3;spacingRight=3;rotatable=0;labelPosition=right;points=[];portConstraint=eastwest;strokeColor=inherit;" vertex="1" parent="bnbWUYlflLQyV73f7VLw-168">
          <mxGeometry y="208" width="230" height="8" as="geometry" />
        </mxCell>
        <mxCell id="bnbWUYlflLQyV73f7VLw-181" value="+ addMember(userID): type" style="text;strokeColor=none;fillColor=none;align=left;verticalAlign=top;spacingLeft=4;spacingRight=4;overflow=hidden;rotatable=0;points=[[0,0.5],[1,0.5]];portConstraint=eastwest;whiteSpace=wrap;html=1;" vertex="1" parent="bnbWUYlflLQyV73f7VLw-168">
          <mxGeometry y="216" width="230" height="26" as="geometry" />
        </mxCell>
        <mxCell id="bnbWUYlflLQyV73f7VLw-182" value="+ removeMember(userID): type" style="text;strokeColor=none;fillColor=none;align=left;verticalAlign=top;spacingLeft=4;spacingRight=4;overflow=hidden;rotatable=0;points=[[0,0.5],[1,0.5]];portConstraint=eastwest;whiteSpace=wrap;html=1;" vertex="1" parent="bnbWUYlflLQyV73f7VLw-168">
          <mxGeometry y="242" width="230" height="26" as="geometry" />
        </mxCell>
        <mxCell id="bnbWUYlflLQyV73f7VLw-183" value="+ updateRole(userID, newRole): type" style="text;strokeColor=none;fillColor=none;align=left;verticalAlign=top;spacingLeft=4;spacingRight=4;overflow=hidden;rotatable=0;points=[[0,0.5],[1,0.5]];portConstraint=eastwest;whiteSpace=wrap;html=1;" vertex="1" parent="bnbWUYlflLQyV73f7VLw-168">
          <mxGeometry y="268" width="230" height="26" as="geometry" />
        </mxCell>
        <mxCell id="bnbWUYlflLQyV73f7VLw-184" value="+ leaveChat(): type" style="text;strokeColor=none;fillColor=none;align=left;verticalAlign=top;spacingLeft=4;spacingRight=4;overflow=hidden;rotatable=0;points=[[0,0.5],[1,0.5]];portConstraint=eastwest;whiteSpace=wrap;html=1;" vertex="1" parent="bnbWUYlflLQyV73f7VLw-168">
          <mxGeometry y="294" width="230" height="26" as="geometry" />
        </mxCell>
        <mxCell id="bnbWUYlflLQyV73f7VLw-185" value="+ resetUnreadCount(): type" style="text;strokeColor=none;fillColor=none;align=left;verticalAlign=top;spacingLeft=4;spacingRight=4;overflow=hidden;rotatable=0;points=[[0,0.5],[1,0.5]];portConstraint=eastwest;whiteSpace=wrap;html=1;" vertex="1" parent="bnbWUYlflLQyV73f7VLw-168">
          <mxGeometry y="320" width="230" height="26" as="geometry" />
        </mxCell>
        <mxCell id="bnbWUYlflLQyV73f7VLw-187" value="&lt;span style=&quot;font-weight: 400; text-align: left;&quot;&gt;Contact&lt;/span&gt;" style="swimlane;fontStyle=1;align=center;verticalAlign=top;childLayout=stackLayout;horizontal=1;startSize=26;horizontalStack=0;resizeParent=1;resizeParentMax=0;resizeLast=0;collapsible=1;marginBottom=0;whiteSpace=wrap;html=1;" vertex="1" parent="WIyWlLk6GJQsqaUBKTNV-1">
          <mxGeometry x="-1630" y="430" width="230" height="268" as="geometry" />
        </mxCell>
        <mxCell id="bnbWUYlflLQyV73f7VLw-188" value="- contactID: type" style="text;strokeColor=none;fillColor=none;align=left;verticalAlign=top;spacingLeft=4;spacingRight=4;overflow=hidden;rotatable=0;points=[[0,0.5],[1,0.5]];portConstraint=eastwest;whiteSpace=wrap;html=1;" vertex="1" parent="bnbWUYlflLQyV73f7VLw-187">
          <mxGeometry y="26" width="230" height="26" as="geometry" />
        </mxCell>
        <mxCell id="bnbWUYlflLQyV73f7VLw-189" value="- userID: type" style="text;strokeColor=none;fillColor=none;align=left;verticalAlign=top;spacingLeft=4;spacingRight=4;overflow=hidden;rotatable=0;points=[[0,0.5],[1,0.5]];portConstraint=eastwest;whiteSpace=wrap;html=1;" vertex="1" parent="bnbWUYlflLQyV73f7VLw-187">
          <mxGeometry y="52" width="230" height="26" as="geometry" />
        </mxCell>
        <mxCell id="bnbWUYlflLQyV73f7VLw-190" value="- contactUserID: type" style="text;strokeColor=none;fillColor=none;align=left;verticalAlign=top;spacingLeft=4;spacingRight=4;overflow=hidden;rotatable=0;points=[[0,0.5],[1,0.5]];portConstraint=eastwest;whiteSpace=wrap;html=1;" vertex="1" parent="bnbWUYlflLQyV73f7VLw-187">
          <mxGeometry y="78" width="230" height="26" as="geometry" />
        </mxCell>
        <mxCell id="bnbWUYlflLQyV73f7VLw-191" value="- aliasName: type" style="text;strokeColor=none;fillColor=none;align=left;verticalAlign=top;spacingLeft=4;spacingRight=4;overflow=hidden;rotatable=0;points=[[0,0.5],[1,0.5]];portConstraint=eastwest;whiteSpace=wrap;html=1;" vertex="1" parent="bnbWUYlflLQyV73f7VLw-187">
          <mxGeometry y="104" width="230" height="26" as="geometry" />
        </mxCell>
        <mxCell id="bnbWUYlflLQyV73f7VLw-192" value="- createdAt: type" style="text;strokeColor=none;fillColor=none;align=left;verticalAlign=top;spacingLeft=4;spacingRight=4;overflow=hidden;rotatable=0;points=[[0,0.5],[1,0.5]];portConstraint=eastwest;whiteSpace=wrap;html=1;" vertex="1" parent="bnbWUYlflLQyV73f7VLw-187">
          <mxGeometry y="130" width="230" height="26" as="geometry" />
        </mxCell>
        <mxCell id="bnbWUYlflLQyV73f7VLw-199" value="" style="line;strokeWidth=1;fillColor=none;align=left;verticalAlign=middle;spacingTop=-1;spacingLeft=3;spacingRight=3;rotatable=0;labelPosition=right;points=[];portConstraint=eastwest;strokeColor=inherit;" vertex="1" parent="bnbWUYlflLQyV73f7VLw-187">
          <mxGeometry y="156" width="230" height="8" as="geometry" />
        </mxCell>
        <mxCell id="bnbWUYlflLQyV73f7VLw-200" value="+ addContact(targetUserID): type" style="text;strokeColor=none;fillColor=none;align=left;verticalAlign=top;spacingLeft=4;spacingRight=4;overflow=hidden;rotatable=0;points=[[0,0.5],[1,0.5]];portConstraint=eastwest;whiteSpace=wrap;html=1;" vertex="1" parent="bnbWUYlflLQyV73f7VLw-187">
          <mxGeometry y="164" width="230" height="26" as="geometry" />
        </mxCell>
        <mxCell id="bnbWUYlflLQyV73f7VLw-201" value="+ viewContacts(): type" style="text;strokeColor=none;fillColor=none;align=left;verticalAlign=top;spacingLeft=4;spacingRight=4;overflow=hidden;rotatable=0;points=[[0,0.5],[1,0.5]];portConstraint=eastwest;whiteSpace=wrap;html=1;" vertex="1" parent="bnbWUYlflLQyV73f7VLw-187">
          <mxGeometry y="190" width="230" height="26" as="geometry" />
        </mxCell>
        <mxCell id="bnbWUYlflLQyV73f7VLw-202" value="+ assignAlias(contactUserID, alias): type" style="text;strokeColor=none;fillColor=none;align=left;verticalAlign=top;spacingLeft=4;spacingRight=4;overflow=hidden;rotatable=0;points=[[0,0.5],[1,0.5]];portConstraint=eastwest;whiteSpace=wrap;html=1;" vertex="1" parent="bnbWUYlflLQyV73f7VLw-187">
          <mxGeometry y="216" width="230" height="26" as="geometry" />
        </mxCell>
        <mxCell id="bnbWUYlflLQyV73f7VLw-203" value="+ blockContact(contactUserID): type" style="text;strokeColor=none;fillColor=none;align=left;verticalAlign=top;spacingLeft=4;spacingRight=4;overflow=hidden;rotatable=0;points=[[0,0.5],[1,0.5]];portConstraint=eastwest;whiteSpace=wrap;html=1;" vertex="1" parent="bnbWUYlflLQyV73f7VLw-187">
          <mxGeometry y="242" width="230" height="26" as="geometry" />
        </mxCell>
        <mxCell id="bnbWUYlflLQyV73f7VLw-230" value="" style="endArrow=diamondThin;endFill=1;endSize=24;html=1;rounded=0;" edge="1" parent="WIyWlLk6GJQsqaUBKTNV-1" source="bnbWUYlflLQyV73f7VLw-168" target="bnbWUYlflLQyV73f7VLw-106">
          <mxGeometry width="160" relative="1" as="geometry">
            <mxPoint x="-1360" y="990" as="sourcePoint" />
            <mxPoint x="-1200" y="990" as="targetPoint" />
            <Array as="points">
              <mxPoint x="-1280" y="963" />
              <mxPoint x="-1280" y="210" />
            </Array>
          </mxGeometry>
        </mxCell>
        <mxCell id="bnbWUYlflLQyV73f7VLw-231" value="" style="endArrow=diamondThin;endFill=0;endSize=24;html=1;rounded=0;edgeStyle=elbowEdgeStyle;" edge="1" parent="WIyWlLk6GJQsqaUBKTNV-1" source="bnbWUYlflLQyV73f7VLw-149" target="bnbWUYlflLQyV73f7VLw-126">
          <mxGeometry width="160" relative="1" as="geometry">
            <mxPoint x="-850" y="400" as="sourcePoint" />
            <mxPoint x="-690" y="400" as="targetPoint" />
            <Array as="points">
              <mxPoint x="-1310" y="440" />
            </Array>
          </mxGeometry>
        </mxCell>
        <mxCell id="bnbWUYlflLQyV73f7VLw-233" value="" style="endArrow=diamondThin;endFill=1;endSize=24;html=1;rounded=0;edgeStyle=elbowEdgeStyle;" edge="1" parent="WIyWlLk6GJQsqaUBKTNV-1" source="bnbWUYlflLQyV73f7VLw-187" target="bnbWUYlflLQyV73f7VLw-64">
          <mxGeometry width="160" relative="1" as="geometry">
            <mxPoint x="-1370" y="540" as="sourcePoint" />
            <mxPoint x="-1220" y="490" as="targetPoint" />
          </mxGeometry>
        </mxCell>
        <mxCell id="bnbWUYlflLQyV73f7VLw-235" value="" style="endArrow=none;html=1;rounded=0;edgeStyle=elbowEdgeStyle;elbow=vertical;" edge="1" parent="WIyWlLk6GJQsqaUBKTNV-1" source="bnbWUYlflLQyV73f7VLw-168" target="bnbWUYlflLQyV73f7VLw-64">
          <mxGeometry width="50" height="50" relative="1" as="geometry">
            <mxPoint x="-1380" y="820" as="sourcePoint" />
            <mxPoint x="-1330" y="770" as="targetPoint" />
          </mxGeometry>
        </mxCell>
        <mxCell id="bnbWUYlflLQyV73f7VLw-236" value="" style="endArrow=diamondThin;endFill=0;endSize=24;html=1;rounded=0;edgeStyle=elbowEdgeStyle;elbow=vertical;" edge="1" parent="WIyWlLk6GJQsqaUBKTNV-1" source="bnbWUYlflLQyV73f7VLw-22" target="bnbWUYlflLQyV73f7VLw-126">
          <mxGeometry width="160" relative="1" as="geometry">
            <mxPoint x="-1300" y="1050" as="sourcePoint" />
            <mxPoint x="-1140" y="1050" as="targetPoint" />
          </mxGeometry>
        </mxCell>
        <mxCell id="bnbWUYlflLQyV73f7VLw-237" value="" style="endArrow=none;html=1;rounded=0;edgeStyle=elbowEdgeStyle;elbow=vertical;" edge="1" parent="WIyWlLk6GJQsqaUBKTNV-1" source="bnbWUYlflLQyV73f7VLw-64" target="bnbWUYlflLQyV73f7VLw-22">
          <mxGeometry width="50" height="50" relative="1" as="geometry">
            <mxPoint x="-740" y="710.33" as="sourcePoint" />
            <mxPoint x="-530" y="710.33" as="targetPoint" />
          </mxGeometry>
        </mxCell>
      </root>
    </mxGraphModel>
  </diagram>
</mxfile>
